<svg version="1.2" xmlns="http://www.w3.org/2000/svg" viewBox="0 0 624 206" width="624" height="206"><style>.a{fill:#39665e}.b{fill:#3a675e}.c{fill:#3b6860}.d{fill:#38665d}.e{fill:#3b685f}.f{fill:#38655d}</style><path class="a" d="m106 32l20 3-10 10-9 11-12 19-5 8 21-5 8-1h17l8 3 3 4 1 3v9l-2 7 9-5 3-5 8-16 8-14 9-11 9-9 7-4 6-1 5 3v10l-8 16-12 15h-2l-2 4-13 11-5 13-1 4v9l3 1 5-3 7-8 8-16 12-25 8-12 9-11 9-8 7-3 8 1 3 4v8l-8 16-6 8-11 12-14 11-4 6-4 13v6l2 1 8-5 8-10 9-16 9-10 8-5 6-2h10l6 3 3 4v14l-1 3 5-2 5-4 9-15 3-1 10 3 2 3-12 22-5 12v6l6-4 9-13 13-23 1-1h9l5 2-1 5-10 18-4 13v5l7-3 6-8 8-15 4-12 1-8 1-1h9l4 2 1 5-4 12-7 13-7 9-10 9-7 3h-11l-6-4-4-6-7 7-8 3-8-1-4-4-1-3v-8l4-12-9 4-7 12-7 7-10 5h-11l-8-5-4-9-9 9-7 4h-9l-5-3-4-6h-1l-10 8-3 1h-9l-7-6-1-2v-11l1-5-10 2-5 9-8 9-10 5h-11l-6-3-4-5-1-3v-11l5-13 9-10 4-4-21 5-10 4-12 22-13 28-5 12-4 1-8-4-2-2 2-9 9-21 10-19 1-2-14 9-12 10-4 5-4-1-3-4v-6l15-10 16-9 13-7 15-26 14-20zm132 14l-8 10-11 16-10 16 1 2 7-7 7-8 8-10 7-13v-6zm-35 1l-8 9-10 15-6 11 1 2 11-12 9-13 4-9zm54 36l-6 3-8 9-6 10-4 12v7l2 3 6-1 5-4 7-11 1-5-4-3-1-4 8 1 2-3 1-5v-7zm-124 2l-8 7-8 12-4 11v11l5 1 6-4 5-6 5-9v-2l-4-4-1-3 7 2 3-5v-11z"/><path class="b" d="m479 75h12l5 4 1 6-5 10-5 6-9 6-7 2h-5v12l6 1 8-4 10-10 6-10 7-11 8-7 8-4 10-1 7 3 2 4-2 9-6 9-7 6-7 3-7 1-1 2v9l4 1 7-2 10-8 9-11 9-16 6-9h11l3 2-2 5-7 10-1 3 12-13 9-6 9-1 5 3 1 2v7l-10 21-2 6v8h6l8-6 4-6h2l-1 5-5 7-8 6-9 1-7-3-4-5-1-3v-7l3-10 8-17-5 3-10 10-9 13-7 14-2 5-9-1-4-2 1-7v-4l-9 8-10 5h-10l-6-3-4-5-2-6-7 7-10 6-4 1h-9l-6-4-3-3-1-3v-13l5-12 8-10 9-6zm7 6l-7 6-10 14-1 4 8-4 8-8 5-9v-3zm41 1l-8 7-6 9-3 5v3l5-2 6-5 7-10 2-7z"/><path class="c" d="m431 144h52l21 2 22 5 10 5 4 4-1 7-15-7-15-4-21-3-30-2h-31l-6 1 20 3 17 5 5 4-1 2-8-4-25-5-21-2h-45l-39 3-37 5-91 15-29 3h-17l-13-2-13-5-6-5-3-5v-7l5 2 5 3 14 3 20 1 27-2 80-10 73-6 36-2z"/><path class="d" d="m399 21h23l16 4 10 5 9 8 5 10 1 3v16l-3 12-8 17-12 16-12 11-13 8-14 6-14 3-7 1h-27l-10-3-2-1 1-2h18l21-4 16-6 13-8 11-9 9-10 9-14 5-12 2-9v-14l-4-10-6-5-8-4-4-1h-19l-16 4-13 8-8 8-6 12v8l3 3-1 1-9-1-6-3-4-5v-9l5-10 9-9 16-9 13-4z"/><path class="e" d="m120 20h42l34 2 8 2 3 3-3 1h-41l-30 1-22 2-19 3-18 4-16 6-17 9-12 11-4 10v9l2 5 9 2v2l-4 1-10-2-6-4-5-6-2-6 1-9 4-8 10-10 13-8 18-8 17-5 21-4 14-2z"/><path class="f" d="m399 35h14l-7 11-14 27-14 29-8 20-1 5-2 1h-13l-3-1 1-8 8-20 15-32 12-22 7-9z"/></svg>